# xmcd
#
# Track frame offsets:
#	150
#	14770
#	27430
#	52520
#	89902
#	105502
#	117675
#	146397
#	197132
#	220077
#	230007
#	244730
#	263997
#	280847
#
# Disc length: 4271 seconds
#
# Revision: 1
# Processed by: cddbd v1.5.1PL0 Copyright (c) Steve Scherf et al.
# Submitted via: CDex 1.50Beta5
#
DISCID=cf10ad0e
DTITLE=Various Artist - フォール・スペシャル
DYEAR=1900
DGENRE=Classical
TTITLE0=さまざまなアーティスト/01.ドヴォルザーク/4つのロマンテックな小品作品75より第1番:アレグロ・モデラード
TTITLE1=さまざまなアーティスト/02.ドヴォルザーク/4つのロマンティックな小品作品75より第2番:アレグロ・マエストーン
TTITLE2=03.プッチーニ/歌劇<マノン・レスコー>間奏曲
TTITLE3=さまざまなアーティスト/04.ベートーヴェン/ヴァイオリンと管絃楽のためのロマンス第2番へ長調作品50
TTITLE4=さまざまなアーティスト/05.ヴィヴァルディ/2つのヴァイオリンとチェロのための協奏曲ニ短調作品3第11番:ラルゴ・エ・スピッカート
TTITLE5=さまざまなアーティスト/06.ヴィヴァルディ/2つのヴァイオリンとチェロのための協奏曲ニ短調作品3第11番:3;アレグロ
TTITLE6=07.ベートーヴェン/<アテネの廃墟>序曲作品113
TTITLE7=さまざまなアーティスト/08.ショパン/パラード第4番へ短調作品52/ピアノ:パヴィカ・グヴォスディク
TTITLE8=09.ゴダール/<ジョスラン>の子守唄
TTITLE9=10.アダン/バレェ音楽<ジゼル>より:前奏曲
TTITLE10=11.アダン/バレェ音楽<ジゼル>より:ジゼルの登場
TTITLE11=12.アダン/バレェ音楽<ジゼル>より:ウイリーの女王ミルタの登場
TTITLE12=13.アダン/バレェ音楽<ジゼル>より:終曲
TTITLE13=14.ニコライ/歌劇<ウィンザーの陽気な女房たち>序曲
EXTD=
EXTT0=
EXTT1=
EXTT2=
EXTT3=
EXTT4=
EXTT5=
EXTT6=
EXTT7=
EXTT8=
EXTT9=
EXTT10=
EXTT11=
EXTT12=
EXTT13=
PLAYORDER=
